<svg xmlns="http://www.w3.org/2000/svg" xmlns:xlink="http://www.w3.org/1999/xlink" width="24" height="24" viewBox="0 0 24 24">
  <defs>
    <clipPath id="clip-path">
      <rect id="Rectangle_17592" data-name="Rectangle 17592" width="24" height="24" transform="translate(37 22)" fill="none"/>
    </clipPath>
  </defs>
  <g id="emoji" transform="translate(-37 -22)">
    <g id="Mask_Group_4" data-name="Mask Group 4" clip-path="url(#clip-path)">
      <path id="happy_3746960" d="M15.516,10.116a1.5,1.5,0,1,0-1.5-1.5,1.5,1.5,0,0,0,1.5,1.5Zm0-1.5v0ZM12,0A12,12,0,1,0,24,12,12.014,12.014,0,0,0,12,0Zm0,22.5A10.5,10.5,0,1,1,22.5,12,10.512,10.512,0,0,1,12,22.5ZM8.484,10.116a1.5,1.5,0,1,0-1.5-1.5A1.5,1.5,0,0,0,8.484,10.116Zm0-1.5v0Zm9.446,4.151H6.069a.75.75,0,0,0-.743.647,4.049,4.049,0,0,0-.038.555,4.61,4.61,0,0,0,2.052,3.707A7.891,7.891,0,0,0,12,19.106a7.892,7.892,0,0,0,4.661-1.431,4.61,4.61,0,0,0,2.052-3.706,4.039,4.039,0,0,0-.038-.554.75.75,0,0,0-.743-.647Zm-2.16,3.7A6.387,6.387,0,0,1,12,17.606a6.387,6.387,0,0,1-3.772-1.139,3.272,3.272,0,0,1-1.423-2.2h10.39A3.272,3.272,0,0,1,15.772,16.467Z" transform="translate(37 22)" fill="#212121"/>
    </g>
  </g>
</svg>
